<?xml version="1.0" encoding="UTF-8"?>
<svg xmlns="http://www.w3.org/2000/svg" id="Layer_1" data-name="Layer 1" viewBox="0 0 90 90">
    <defs>
        <style>.cls-1{fill:#ffd21e;}.cls-2{fill:#fff;}</style>
    </defs>
    <title>L</title>
    <path class="cls-1"
          d="M25,64H13c-3.31,0-7-3.19-7-6.5v-27C6,27.19,9.69,25,13,25H25V11.5C25,8.19,28.19,6,31.5,6h28A5.19,5.19,0,0,1,65,11.5V38.25C65,41.56,62.81,45,59.5,45H31.44C28.12,45,25,46.81,25,50.13Z"></path>
    <path class="cls-2"
          d="M66,26H78.25C81.56,26,85,28.19,85,31.5v27c0,3.31-3.44,6.5-6.75,6.5H66V77.5A6.67,6.67,0,0,1,59.75,84h-28C28.44,84,26,80.81,26,77.5V50.75A5.59,5.59,0,0,1,31.75,45H59.81A6.27,6.27,0,0,0,66,38.88Z"></path>
    <path d="M59.5,85h-28A7.5,7.5,0,0,1,24,77.5v-27A7.5,7.5,0,0,1,31.5,43h28A4.51,4.51,0,0,0,64,38.5v-27A4.51,4.51,0,0,0,59.5,7h-28A4.51,4.51,0,0,0,27,11.5V24a1.5,1.5,0,0,1-3,0V11.5A7.5,7.5,0,0,1,31.5,4h28A7.5,7.5,0,0,1,67,11.5v27A7.5,7.5,0,0,1,59.5,46h-28A4.51,4.51,0,0,0,27,50.5v27A4.51,4.51,0,0,0,31.5,82h28A4.51,4.51,0,0,0,64,77.5V64a1.5,1.5,0,0,1,3,0V77.5A7.5,7.5,0,0,1,59.5,85Z"></path>
    <path d="M78.5,65H49a1.5,1.5,0,0,1,0-3H78.5A4.51,4.51,0,0,0,83,57.5v-27A4.51,4.51,0,0,0,78.5,26H66a1.5,1.5,0,0,1,0-3H78.5A7.5,7.5,0,0,1,86,30.5v27A7.5,7.5,0,0,1,78.5,65Z"></path>
    <path d="M25,65H12.5A7.5,7.5,0,0,1,5,57.5v-27A7.5,7.5,0,0,1,12.5,23H42a1.5,1.5,0,0,1,0,3H12.5A4.51,4.51,0,0,0,8,30.5v27A4.51,4.51,0,0,0,12.5,62H25a1.5,1.5,0,0,1,0,3Z"></path>
    <circle cx="35.5" cy="15.5" r="3.5"></circle>
    <circle cx="55.5" cy="73.5" r="3.5"></circle>
</svg>